<?xml version="1.0" encoding="UTF-8"?><svg id="Layer_1" xmlns="http://www.w3.org/2000/svg" viewBox="0 0 256 256"><defs><style>.cls-1{fill:#0d0d0d;}.cls-1,.cls-2,.cls-3{stroke-width:0px;}.cls-2{fill:#b5915b;}.cls-3{fill:#fff;}</style></defs><rect class="cls-1" width="256" height="256"/><path class="cls-2" d="M124.7073,81.9024v133.7456c0,1.2544,1.0976,2.3519,2.3519,2.3519h17.561c1.2544,0,2.3519-1.0976,2.3519-2.3519v-42.8049h68.8328c1.2544,0,2.3519-1.0976,2.3519-2.3519v-88.5888c0-1.2544-1.0976-2.3519-2.3519-2.3519h-88.7456c-1.2544,0-2.3519.9408-2.3519,2.3519M146.9721,101.8153h48.9199v48.9199h-48.9199v-48.9199Z"/><path class="cls-2" d="M57.9129,217.8432h-17.7178c-1.2544,0-2.3519-1.0976-2.3519-2.3519V40.6655c0-1.2544,1.0976-2.6655,2.3519-2.6655h78.554c1.2544,0,2.3519,1.4111,2.3519,2.6655v17.4042c0,1.2544-1.0976,2.3519-2.3519,2.3519h-58.6411v46.7247h38.885c1.2544,0,2.3519,1.0976,2.3519,2.3519v17.7178c0,1.2544-.9408,2.3519-2.3519,2.3519h-38.885v86.2369c0,.9408-.9408,2.0383-2.1951,2.0383"/><path class="cls-3" d="M82.6864,84.7247h13.9547c1.4112,0,2.5087-1.0976,2.5087-2.5087v-10.1916c0-1.4111-1.0976-2.5087-2.5087-2.5087h-13.9547c-1.4111,0-2.5087,1.0976-2.5087,2.5087v10.0348c0,1.5679,1.0976,2.6655,2.5087,2.6655"/><path class="cls-3" d="M98.6794,95.23c0,1.4112,1.0976,2.5087,2.5087,2.5087h8.4669c1.4112,0,2.5087-1.0976,2.5087-2.5087v-8.4669c0-1.4112-1.0976-2.3519-2.5087-2.3519h-8.4669c-1.4112,0-2.5087,1.0976-2.5087,2.3519v8.4669Z"/><path class="cls-3" d="M71.8676,97.7387h6.2718c1.4111,0,2.5087-1.0976,2.5087-2.5087v-8.6237c0-1.2544-.9408-2.1951-2.1951-2.1951h-6.4286c-1.4111,0-2.5087,1.0976-2.5087,2.5087v8.4669c0,1.2544,1.0976,2.3519,2.3519,2.3519"/><path class="cls-3" d="M112.007,154.1847h-8.3101c-1.4112,0-2.5087,1.0976-2.5087,2.5087v8.9373c0,1.4112,1.0976,2.5087,2.5087,2.5087h8.3101c1.4112,0,2.5087-1.0976,2.5087-2.5087v-8.9373c.1568-1.2544-1.0976-2.5087-2.5087-2.5087"/><path class="cls-3" d="M190.2474,186.4843c0-1.4112-1.0976-2.5087-2.5087-2.5087h-10.662c-1.4112,0-2.5087,1.0976-2.5087,2.5087v13.3275c0,1.4112,1.0976,2.5087,2.5087,2.5087h10.662c1.4112,0,2.5087-1.0976,2.5087-2.5087v-13.3275Z"/><path class="cls-3" d="M171.2753,202.007h-10.662c-1.4112,0-2.5087,1.0976-2.5087,2.5087v10.662c0,1.4112,1.0976,2.5087,2.5087,2.5087h10.662c1.4112,0,2.5087-1.0976,2.5087-2.5087v-10.5052c.1568-1.4112-1.0976-2.6655-2.5087-2.6655"/><path class="cls-3" d="M215.6481,38h-22.2648c-1.4112,0-2.5087,1.0976-2.5087,2.5087v7.9965c0,1.4111,1.0976,2.5087,2.5087,2.5087h10.9756l1.0976,1.0976v11.7596c0,1.4111,1.0976,2.5087,2.5087,2.5087h7.6829c1.4112,0,2.5087-1.0976,2.5087-2.5087v-23.2056c0-1.4111-1.0976-2.6655-2.5087-2.6655"/><path class="cls-3" d="M189.6202,64.0279v-7.9965c0-1.4111-1.0976-2.5087-2.5087-2.5087h-10.662l-1.0976-1.0976v-11.7596c0-1.4111-1.0976-2.5087-2.5087-2.5087h-7.6829c-1.4112,0-2.5087,1.0976-2.5087,2.5087v11.7596l-1.0976,1.0976h-10.9756c-1.4112,0-2.5087,1.0976-2.5087,2.5087v7.9965c0,1.4111,1.0976,2.5087,2.5087,2.5087h36.5331c1.4111,0,2.5087-1.0976,2.5087-2.5087"/><path class="cls-3" d="M110.439,204.6725h-10.662l-1.0976-1.0976v-11.7596c0-1.4112-1.0976-2.5087-2.5087-2.5087h-7.6829c-1.4112,0-2.5087,1.0976-2.5087,2.5087v11.7596l-1.2544,1.0976h-10.9756c-1.4111,0-2.5087,1.0976-2.5087,2.5087v7.9965c0,1.4112,1.0976,2.5087,2.5087,2.5087h36.5331c1.4112,0,2.5087-1.0976,2.5087-2.5087v-7.9965c.1568-1.2543-.9408-2.5087-2.3519-2.5087"/><path class="cls-3" d="M83.3136,176.7631c1.4111,0,2.5087-1.0976,2.5087-2.5087v-17.4042c0-1.4112-1.0976-2.5087-2.5087-2.5087h-10.8188c-1.4111,0-2.5087,1.0976-2.5087,2.5087v17.4042c0,1.4112,1.0976,2.5087,2.5087,2.5087h10.8188Z"/><path class="cls-3" d="M98.993,138.662h-10.8188c-1.4112,0-2.5087,1.0976-2.5087,2.5087v10.8188c0,1.4112,1.0976,2.5087,2.5087,2.5087h10.8188c1.4112,0,2.5087-1.0976,2.5087-2.5087v-10.8188c0-1.4112-1.2543-2.5087-2.5087-2.5087"/><path class="cls-3" d="M144.4634,38h-9.2509c-1.4112,0-2.5087,1.0976-2.5087,2.5087v10.1916c0,1.4111,1.0976,2.5087,2.5087,2.5087h9.2509c1.4112,0,2.5087-1.0976,2.5087-2.5087v-10.0348c0-1.4111-1.0976-2.6655-2.5087-2.6655"/><path class="cls-3" d="M162.4948,114.6725c-1.4112,0-2.6655,1.0976-2.6655,2.6655v17.7178c0,1.4112,1.0976,2.6655,2.6655,2.6655h17.8746c1.4112,0,2.6655-1.0976,2.6655-2.6655v-17.7178c0-1.4112-1.0976-2.6655-2.6655-2.6655h-17.8746Z"/><path class="cls-3" d="M215.6481,190.4042h-7.9965c-1.4112,0-2.5087,1.0976-2.5087,2.5087v10.9756l-1.0976,1.0976h-11.7596c-1.4112,0-2.5087,1.0976-2.5087,2.5087v7.6829c0,1.4112,1.0976,2.5087,2.5087,2.5087h23.3624c1.4112,0,2.5087-1.0976,2.5087-2.5087v-22.2648c0-1.4112-1.0976-2.5087-2.5087-2.5087"/></svg>