<?xml version="1.0" encoding="utf-8"?>
<!-- Generator: Adobe Illustrator 24.0.1, SVG Export Plug-In . SVG Version: 6.00 Build 0)  -->
<svg version="1.1" id="Layer_1" xmlns="http://www.w3.org/2000/svg" xmlns:xlink="http://www.w3.org/1999/xlink" x="0px" y="0px"
	 viewBox="0 0 509 182" enable-background="new 0 0 509 182" xml:space="preserve">
<g>
	<g>
		<polygon fill="#29297C" points="210.2,1.3 210.2,74.7 227.4,74.7 227.4,46.7 254.4,46.7 254.4,33 227.4,33 227.4,15 256.1,15 
			256.1,1.3 		"/>
		<path fill="#29297C" d="M288.1,34.7c-7.5,0-11.9,5.8-11.9,13.6s4.4,13.6,11.9,13.6c7.4,0,11.9-5.8,11.9-13.6
			S295.5,34.7,288.1,34.7 M288.1,75.8c-16.6,0-29.1-10.3-29.1-27.2s12.5-27.3,29.1-27.3c16.6,0,29,10.4,29,27.3
			S304.7,75.8,288.1,75.8"/>
		<path fill="#29297C" d="M358.8,37.9H358c-1-0.5-3.2-1.3-6.2-1.3c-3.8,0-6.6,2.1-7.9,3.8c-1.3,1.7-2.7,5.1-2.7,11v23.3h-17V22.3h17
			l-0.1,7.4h0.2c3-5.7,7.3-8.4,13-8.4c3.5,0,5.3,1,5.3,1L358.8,37.9z"/>
		<path fill="#29297C" d="M414.7,74.7h-16.4l-0.1-6c-2.2,3.2-7.8,7.1-15.3,7.1c-7.5,0-12.3-2.7-15-6.2c-2.6-3.6-3.8-8.2-3.8-15.7
			V22.3h17v29.3c0,6.1,1.7,10.2,7.8,10.2c6.1,0,8.8-4.8,8.8-11.7V22.3h17V74.7z"/>
		<path fill="#29297C" d="M507,74.7h-17.1V46.2c0-5.6-1.1-11-6.9-11c-6,0-8.5,5.3-8.5,12.5v26.9h-17V46.2c0-6.5-1.5-11-7-11
			c-6,0-8.5,5.3-8.5,12.5v26.9h-17V22.3h17l-0.1,7.5l0.2-0.1c2.7-4.4,7.8-8.4,14.5-8.4c7.2,0,13,2.4,15.6,9.6
			c3.7-6.4,8.9-9.6,16.7-9.6c13.4,0,18.2,9.1,18.2,21.8V74.7z"/>
		<path fill="#29297C" d="M242.4,101.5c-2.1-1.5-4.6-2-8.3-2h-6.7v19.7h6.7c3.7,0,6.2-0.5,8.3-2c2-1.5,3.5-4.1,3.5-7.9
			C245.9,105.5,244.4,103,242.4,101.5 M255.6,126.9c-4.9,4-11.6,5.5-19.1,5.5h-9v27.1h-17.2V86.2h26.3c7.5,0,14.2,1.5,19.1,5.5
			c4.9,4,7.7,9.7,7.7,17.5S260.5,122.7,255.6,126.9"/>
		<path fill="#29297C" d="M298.1,136.5l-8.4,0.5c-5.2,0.2-8.3,2.4-8.3,6.4c0,4,3.3,6.5,8,6.5c4.6,0,7.7-3,8.7-4.8V136.5z M315,159.5
			h-16.3l-0.3-5.5c-2.2,2.2-6.5,6.7-15,6.7c-9.3,0-19-5-19-16.7c0-11.7,10.7-15.6,20.4-16.1l13.2-0.5v-1.2c0-5.5-3.9-8.4-10.7-8.4
			c-6.7,0-13.4,3-16.1,4.7l-4.5-11.1c4.5-2.2,12.7-5.3,22.4-5.3c9.8,0,15.4,2.2,19.6,6.1c4,3.8,6.3,8.9,6.3,17.8V159.5z"/>
		<path fill="#29297C" d="M377.4,107.1L354,164.5c-3.8,9.4-8.1,15.1-17,15.1c-8.9,0-14.6-2.6-14.6-2.6l3.4-12.5c0,0,3.7,1.4,6.3,1.4
			c1.9,0,3.7,0,5.1-3.4l1.9-4.6l-20.7-50.8h17.8l11.9,33.7l11.8-33.7H377.4z"/>
	</g>
	<g>
		<path fill="#FFBA00" d="M78.5,40.3V158c0,1.1,0.9,2,2,2h15.5c1.1,0,2.1-0.9,2.1-2.1v-37.5h60.6c1.1,0,2.1-0.9,2.1-2.1V40.3
			c0-1.1-0.9-2.1-2.1-2.1H80.6C79.5,38.2,78.5,39.2,78.5,40.3z M98.1,57.8h43v43h-43V57.8z"/>
	</g>
	<path fill="#FFBA00" d="M19.6,160.1H4c-1.1,0-2-0.9-2-2V4c0-1.1,0.9-2.3,2-2.3h69.2c1.1,0,2,1.2,2,2.3v15.4c0,1.1-0.9,2-2,2H21.6
		v41.1h34.2c1.1,0,2,0.9,2,2v15.5c0,1.1-0.9,2-2,2H21.6l0.1,75.9C21.6,159.2,20.7,160.1,19.6,160.1z"/>
	<path fill="#29297C" d="M41.4,42.8h12.2c1.2,0,2.1-1,2.1-2.1v-8.9c0-1.2-1-2.1-2.1-2.1H41.4c-1.2,0-2.1,1-2.1,2.1v8.9
		C39.2,41.8,40.2,42.8,41.4,42.8z"/>
	<path fill="#29297C" d="M55.5,52.1c0,1.2,1,2.1,2.1,2.1h7.4c1.2,0,2.1-1,2.1-2.1v-7.4c0-1.2-1-2.1-2.1-2.1h-7.4
		c-1.2,0-2.1,1-2.1,2.1V52.1z"/>
	<path fill="#29297C" d="M32,54.3h5.5c1.2,0,2.1-1,2.1-2.1v-7.7c0-1-0.9-1.9-1.9-1.9H32c-1.2,0-2.1,1-2.1,2.1v7.4
		C29.8,53.3,30.8,54.3,32,54.3z"/>
	<path fill="#29297C" d="M67.4,104.1H60c-1.2,0-2.2,1-2.2,2.2v7.8c0,1.2,1,2.2,2.2,2.2h7.3c1.2,0,2.2-1,2.2-2.2v-7.8
		C69.6,105.1,68.6,104.1,67.4,104.1z"/>
	<path fill="#29297C" d="M136.2,132.4c0-1.2-1-2.3-2.3-2.3h-9.4c-1.2,0-2.3,1-2.3,2.3v11.7c0,1.2,1,2.3,2.3,2.3h9.4
		c1.2,0,2.3-1,2.3-2.3V132.4z"/>
	<path fill="#29297C" d="M119.5,146.2h-9.4c-1.2,0-2.3,1-2.3,2.3v9.4c0,1.2,1,2.3,2.3,2.3h9.4c1.2,0,2.3-1,2.3-2.3v-9.4
		C121.8,147.2,120.8,146.2,119.5,146.2z"/>
	<path fill="#29297C" d="M158.5,1.7h-19.7c-1.2,0-2.2,1-2.2,2.2v7c0,1.2,1,2.2,2.2,2.2h9.7c0.5,0,1,0.4,1,1v10.4
		c0,1.2,1,2.2,2.2,2.2h6.8c1.2,0,2.2-1,2.2-2.2V4C160.8,2.7,159.8,1.7,158.5,1.7z"/>
	<path fill="#29297C" d="M135.7,24.6v-7c0-1.2-1-2.2-2.2-2.2h-9.4c-0.5,0-1-0.4-1-1V4c0-1.2-1-2.2-2.2-2.2h-6.8
		c-1.2,0-2.2,1-2.2,2.2v10.4c0,0.5-0.4,1-1,1h-9.6c-1.2,0-2.2,1-2.2,2.2v7c0,1.2,1,2.2,2.2,2.2h32.2
		C134.7,26.8,135.7,25.8,135.7,24.6z"/>
	<path fill="#29297C" d="M65.9,148.5h-9.4c-0.5,0-1-0.4-1-1v-10.4c0-1.2-1-2.2-2.2-2.2h-6.8c-1.2,0-2.2,1-2.2,2.2v10.4
		c0,0.5-0.4,1-1,1h-9.6c-1.2,0-2.2,1-2.2,2.2v7c0,1.2,1,2.2,2.2,2.2h32.2c1.2,0,2.2-1,2.2-2.2v-7C68.1,149.5,67.1,148.5,65.9,148.5z
		"/>
	<path fill="#29297C" d="M42,123.9c1.2,0,2.2-1,2.2-2.2v-15.3c0-1.2-1-2.2-2.2-2.2h-9.5c-1.2,0-2.2,1-2.2,2.2v15.3
		c0,1.2,1,2.2,2.2,2.2H42z"/>
	<path fill="#29297C" d="M55.8,90.3h-9.5c-1.2,0-2.2,1-2.2,2.2v9.5c0,1.2,1,2.2,2.2,2.2h9.5c1.2,0,2.2-1,2.2-2.2v-9.5
		C58,91.3,57,90.3,55.8,90.3z"/>
	<path fill="#29297C" d="M95.9,1.7h-8.2c-1.2,0-2.2,1-2.2,2.2v9c0,1.2,1,2.2,2.2,2.2h8.2c1.2,0,2.2-1,2.2-2.2V4
		C98.1,2.7,97.1,1.7,95.9,1.7z"/>
	<path fill="#29297C" d="M111.8,69.2c-1.3,0-2.3,1-2.3,2.3v15.7c0,1.3,1,2.3,2.3,2.3h15.7c1.3,0,2.3-1,2.3-2.3V71.5
		c0-1.3-1-2.3-2.3-2.3H111.8z"/>
	<path fill="#29297C" d="M158.5,135.9h-7c-1.2,0-2.2,1-2.2,2.2v9.7c0,0.5-0.4,1-1,1h-10.4c-1.2,0-2.2,1-2.2,2.2v6.8
		c0,1.2,1,2.2,2.2,2.2h20.6c1.2,0,2.2-1,2.2-2.2v-19.7C160.8,136.9,159.8,135.9,158.5,135.9z"/>
</g>
</svg>
