<?xml version="1.0" encoding="UTF-8"?>
<svg xmlns="http://www.w3.org/2000/svg" xmlns:xlink="http://www.w3.org/1999/xlink" width="50px" height="18px" viewBox="0 0 50 18" version="1.1">
	<g id="surface1">
		<path style=" stroke:none;fill-rule:nonzero;fill:rgb(16.078431%,16.078431%,48.627451%);fill-opacity:1;" d="M 20.648438 0.128906 L 20.648438 7.386719 L 22.339844 7.386719 L 22.339844 4.617188 L 24.988281 4.617188 L 24.988281 3.265625 L 22.339844 3.265625 L 22.339844 1.484375 L 25.15625 1.484375 L 25.15625 0.128906 Z M 20.648438 0.128906 "/>
		<path style=" stroke:none;fill-rule:nonzero;fill:rgb(16.078431%,16.078431%,48.627451%);fill-opacity:1;" d="M 28.300781 3.433594 C 27.5625 3.433594 27.132812 4.003906 27.132812 4.777344 C 27.132812 5.546875 27.5625 6.121094 28.300781 6.121094 C 29.027344 6.121094 29.46875 5.546875 29.46875 4.777344 C 29.46875 4.003906 29.027344 3.433594 28.300781 3.433594 M 28.300781 7.496094 C 26.671875 7.496094 25.441406 6.476562 25.441406 4.804688 C 25.441406 3.136719 26.671875 2.105469 28.300781 2.105469 C 29.929688 2.105469 31.148438 3.136719 31.148438 4.804688 C 31.148438 6.476562 29.929688 7.496094 28.300781 7.496094 "/>
		<path style=" stroke:none;fill-rule:nonzero;fill:rgb(16.078431%,16.078431%,48.627451%);fill-opacity:1;" d="M 35.246094 3.75 L 35.167969 3.75 C 35.070312 3.699219 34.851562 3.621094 34.558594 3.621094 C 34.183594 3.621094 33.910156 3.828125 33.78125 3.996094 C 33.652344 4.164062 33.515625 4.5 33.515625 5.082031 L 33.515625 7.386719 L 31.847656 7.386719 L 31.847656 2.207031 L 33.515625 2.207031 L 33.507812 2.9375 L 33.527344 2.9375 C 33.820312 2.375 34.242188 2.105469 34.804688 2.105469 C 35.148438 2.105469 35.324219 2.207031 35.324219 2.207031 Z M 35.246094 3.75 "/>
		<path style=" stroke:none;fill-rule:nonzero;fill:rgb(16.078431%,16.078431%,48.627451%);fill-opacity:1;" d="M 40.738281 7.386719 L 39.125 7.386719 L 39.117188 6.792969 C 38.898438 7.109375 38.351562 7.496094 37.613281 7.496094 C 36.875 7.496094 36.40625 7.230469 36.140625 6.882812 C 35.882812 6.527344 35.765625 6.074219 35.765625 5.332031 L 35.765625 2.207031 L 37.4375 2.207031 L 37.4375 5.101562 C 37.4375 5.707031 37.601562 6.113281 38.203125 6.113281 C 38.800781 6.113281 39.066406 5.636719 39.066406 4.953125 L 39.066406 2.207031 L 40.738281 2.207031 Z M 40.738281 7.386719 "/>
		<path style=" stroke:none;fill-rule:nonzero;fill:rgb(16.078431%,16.078431%,48.627451%);fill-opacity:1;" d="M 49.804688 7.386719 L 48.125 7.386719 L 48.125 4.570312 C 48.125 4.015625 48.015625 3.480469 47.445312 3.480469 C 46.855469 3.480469 46.609375 4.003906 46.609375 4.71875 L 46.609375 7.378906 L 44.941406 7.378906 L 44.941406 4.570312 C 44.941406 3.925781 44.792969 3.480469 44.253906 3.480469 C 43.664062 3.480469 43.417969 4.003906 43.417969 4.71875 L 43.417969 7.378906 L 41.75 7.378906 L 41.75 2.207031 L 43.417969 2.207031 L 43.410156 2.945312 L 43.429688 2.9375 C 43.695312 2.503906 44.195312 2.105469 44.851562 2.105469 C 45.558594 2.105469 46.128906 2.34375 46.386719 3.054688 C 46.75 2.421875 47.257812 2.105469 48.027344 2.105469 C 49.34375 2.105469 49.8125 3.007812 49.8125 4.261719 L 49.8125 7.386719 Z M 49.804688 7.386719 "/>
		<path style=" stroke:none;fill-rule:nonzero;fill:rgb(16.078431%,16.078431%,48.627451%);fill-opacity:1;" d="M 23.8125 10.039062 C 23.605469 9.890625 23.359375 9.839844 22.996094 9.839844 L 22.339844 9.839844 L 22.339844 11.789062 L 22.996094 11.789062 C 23.359375 11.789062 23.605469 11.738281 23.8125 11.589844 C 24.007812 11.441406 24.15625 11.1875 24.15625 10.808594 C 24.15625 10.433594 24.007812 10.1875 23.8125 10.039062 M 25.109375 12.550781 C 24.625 12.945312 23.96875 13.09375 23.230469 13.09375 L 22.347656 13.09375 L 22.347656 15.773438 L 20.65625 15.773438 L 20.65625 8.523438 L 23.242188 8.523438 C 23.976562 8.523438 24.636719 8.671875 25.117188 9.070312 C 25.597656 9.464844 25.875 10.027344 25.875 10.800781 C 25.875 11.570312 25.589844 12.136719 25.109375 12.550781 "/>
		<path style=" stroke:none;fill-rule:nonzero;fill:rgb(16.078431%,16.078431%,48.627451%);fill-opacity:1;" d="M 29.28125 13.5 L 28.457031 13.550781 C 27.945312 13.570312 27.640625 13.785156 27.640625 14.183594 C 27.640625 14.578125 27.964844 14.824219 28.429688 14.824219 C 28.878906 14.824219 29.183594 14.527344 29.28125 14.351562 Z M 30.941406 15.773438 L 29.34375 15.773438 L 29.3125 15.230469 C 29.097656 15.449219 28.675781 15.894531 27.839844 15.894531 C 26.925781 15.894531 25.972656 15.398438 25.972656 14.242188 C 25.972656 13.085938 27.023438 12.699219 27.976562 12.648438 L 29.273438 12.601562 L 29.273438 12.480469 C 29.273438 11.9375 28.890625 11.652344 28.222656 11.652344 C 27.5625 11.652344 26.90625 11.945312 26.640625 12.117188 L 26.199219 11.019531 C 26.640625 10.800781 27.445312 10.492188 28.398438 10.492188 C 29.363281 10.492188 29.910156 10.710938 30.324219 11.097656 C 30.71875 11.472656 30.941406 11.976562 30.941406 12.855469 Z M 30.941406 15.773438 "/>
		<path style=" stroke:none;fill-rule:nonzero;fill:rgb(16.078431%,16.078431%,48.627451%);fill-opacity:1;" d="M 37.074219 10.59375 L 34.773438 16.269531 C 34.402344 17.199219 33.976562 17.761719 33.105469 17.761719 C 32.230469 17.761719 31.671875 17.503906 31.671875 17.503906 L 32.003906 16.269531 C 32.003906 16.269531 32.367188 16.40625 32.621094 16.40625 C 32.808594 16.40625 32.984375 16.40625 33.125 16.070312 L 33.308594 15.617188 L 31.277344 10.59375 L 33.027344 10.59375 L 34.195312 13.925781 L 35.355469 10.59375 Z M 37.074219 10.59375 "/>
		<path style=" stroke:none;fill-rule:nonzero;fill:rgb(100%,72.941176%,0%);fill-opacity:1;" d="M 7.710938 3.984375 L 7.710938 15.625 C 7.710938 15.734375 7.800781 15.824219 7.90625 15.824219 L 9.429688 15.824219 C 9.539062 15.824219 9.636719 15.734375 9.636719 15.617188 L 9.636719 11.90625 L 15.589844 11.90625 C 15.699219 11.90625 15.796875 11.820312 15.796875 11.699219 L 15.796875 3.984375 C 15.796875 3.875 15.707031 3.777344 15.589844 3.777344 L 7.917969 3.777344 C 7.808594 3.777344 7.710938 3.875 7.710938 3.984375 Z M 9.636719 5.714844 L 13.859375 5.714844 L 13.859375 9.96875 L 9.636719 9.96875 Z M 9.636719 5.714844 "/>
		<path style=" stroke:none;fill-rule:nonzero;fill:rgb(100%,72.941176%,0%);fill-opacity:1;" d="M 1.925781 15.835938 L 0.394531 15.835938 C 0.285156 15.835938 0.195312 15.746094 0.195312 15.636719 L 0.195312 0.394531 C 0.195312 0.285156 0.285156 0.167969 0.394531 0.167969 L 7.191406 0.167969 C 7.296875 0.167969 7.386719 0.285156 7.386719 0.394531 L 7.386719 1.917969 C 7.386719 2.027344 7.296875 2.117188 7.191406 2.117188 L 2.121094 2.117188 L 2.121094 6.179688 L 5.480469 6.179688 C 5.589844 6.179688 5.679688 6.269531 5.679688 6.378906 L 5.679688 7.910156 C 5.679688 8.019531 5.589844 8.109375 5.480469 8.109375 L 2.121094 8.109375 L 2.132812 15.617188 C 2.121094 15.746094 2.035156 15.835938 1.925781 15.835938 Z M 1.925781 15.835938 "/>
		<path style=" stroke:none;fill-rule:nonzero;fill:rgb(16.078431%,16.078431%,48.627451%);fill-opacity:1;" d="M 4.066406 4.234375 L 5.265625 4.234375 C 5.382812 4.234375 5.472656 4.132812 5.472656 4.023438 L 5.472656 3.144531 C 5.472656 3.027344 5.375 2.9375 5.265625 2.9375 L 4.066406 2.9375 C 3.949219 2.9375 3.859375 3.035156 3.859375 3.144531 L 3.859375 4.023438 C 3.851562 4.132812 3.949219 4.234375 4.066406 4.234375 Z M 4.066406 4.234375 "/>
		<path style=" stroke:none;fill-rule:nonzero;fill:rgb(16.078431%,16.078431%,48.627451%);fill-opacity:1;" d="M 5.453125 5.152344 C 5.453125 5.269531 5.550781 5.359375 5.65625 5.359375 L 6.386719 5.359375 C 6.503906 5.359375 6.589844 5.261719 6.589844 5.152344 L 6.589844 4.421875 C 6.589844 4.300781 6.492188 4.214844 6.386719 4.214844 L 5.65625 4.214844 C 5.539062 4.214844 5.453125 4.3125 5.453125 4.421875 Z M 5.453125 5.152344 "/>
		<path style=" stroke:none;fill-rule:nonzero;fill:rgb(16.078431%,16.078431%,48.627451%);fill-opacity:1;" d="M 3.144531 5.371094 L 3.683594 5.371094 C 3.800781 5.371094 3.890625 5.269531 3.890625 5.164062 L 3.890625 4.402344 C 3.890625 4.300781 3.800781 4.214844 3.703125 4.214844 L 3.144531 4.214844 C 3.027344 4.214844 2.9375 4.3125 2.9375 4.421875 L 2.9375 5.152344 C 2.925781 5.269531 3.027344 5.371094 3.144531 5.371094 Z M 3.144531 5.371094 "/>
		<path style=" stroke:none;fill-rule:nonzero;fill:rgb(16.078431%,16.078431%,48.627451%);fill-opacity:1;" d="M 6.621094 10.296875 L 5.894531 10.296875 C 5.777344 10.296875 5.679688 10.394531 5.679688 10.511719 L 5.679688 11.285156 C 5.679688 11.402344 5.777344 11.503906 5.894531 11.503906 L 6.609375 11.503906 C 6.730469 11.503906 6.828125 11.402344 6.828125 11.285156 L 6.828125 10.511719 C 6.835938 10.394531 6.738281 10.296875 6.621094 10.296875 Z M 6.621094 10.296875 "/>
		<path style=" stroke:none;fill-rule:nonzero;fill:rgb(16.078431%,16.078431%,48.627451%);fill-opacity:1;" d="M 13.378906 13.09375 C 13.378906 12.976562 13.28125 12.867188 13.152344 12.867188 L 12.230469 12.867188 C 12.113281 12.867188 12.003906 12.964844 12.003906 13.09375 L 12.003906 14.25 C 12.003906 14.371094 12.101562 14.480469 12.230469 14.480469 L 13.152344 14.480469 C 13.269531 14.480469 13.378906 14.378906 13.378906 14.25 Z M 13.378906 13.09375 "/>
		<path style=" stroke:none;fill-rule:nonzero;fill:rgb(16.078431%,16.078431%,48.627451%);fill-opacity:1;" d="M 11.738281 14.460938 L 10.816406 14.460938 C 10.699219 14.460938 10.589844 14.558594 10.589844 14.6875 L 10.589844 15.617188 C 10.589844 15.734375 10.6875 15.84375 10.816406 15.84375 L 11.738281 15.84375 C 11.855469 15.84375 11.964844 15.746094 11.964844 15.617188 L 11.964844 14.6875 C 11.964844 14.558594 11.867188 14.460938 11.738281 14.460938 Z M 11.738281 14.460938 "/>
		<path style=" stroke:none;fill-rule:nonzero;fill:rgb(16.078431%,16.078431%,48.627451%);fill-opacity:1;" d="M 15.570312 0.167969 L 13.632812 0.167969 C 13.515625 0.167969 13.417969 0.265625 13.417969 0.386719 L 13.417969 1.078125 C 13.417969 1.195312 13.515625 1.296875 13.632812 1.296875 L 14.585938 1.296875 C 14.636719 1.296875 14.6875 1.335938 14.6875 1.394531 L 14.6875 2.421875 C 14.6875 2.542969 14.785156 2.640625 14.902344 2.640625 L 15.570312 2.640625 C 15.6875 2.640625 15.785156 2.542969 15.785156 2.421875 L 15.785156 0.394531 C 15.796875 0.265625 15.699219 0.167969 15.570312 0.167969 Z M 15.570312 0.167969 "/>
		<path style=" stroke:none;fill-rule:nonzero;fill:rgb(16.078431%,16.078431%,48.627451%);fill-opacity:1;" d="M 13.328125 2.433594 L 13.328125 1.742188 C 13.328125 1.621094 13.230469 1.523438 13.113281 1.523438 L 12.191406 1.523438 C 12.140625 1.523438 12.09375 1.484375 12.09375 1.425781 L 12.09375 0.394531 C 12.09375 0.277344 11.992188 0.179688 11.875 0.179688 L 11.207031 0.179688 C 11.089844 0.179688 10.992188 0.277344 10.992188 0.394531 L 10.992188 1.425781 C 10.992188 1.472656 10.953125 1.523438 10.894531 1.523438 L 9.949219 1.523438 C 9.832031 1.523438 9.734375 1.621094 9.734375 1.742188 L 9.734375 2.433594 C 9.734375 2.550781 9.832031 2.652344 9.949219 2.652344 L 13.113281 2.652344 C 13.230469 2.652344 13.328125 2.550781 13.328125 2.433594 Z M 13.328125 2.433594 "/>
		<path style=" stroke:none;fill-rule:nonzero;fill:rgb(16.078431%,16.078431%,48.627451%);fill-opacity:1;" d="M 6.472656 14.6875 L 5.550781 14.6875 C 5.5 14.6875 5.453125 14.648438 5.453125 14.589844 L 5.453125 13.558594 C 5.453125 13.441406 5.355469 13.339844 5.234375 13.339844 L 4.566406 13.339844 C 4.449219 13.339844 4.351562 13.441406 4.351562 13.558594 L 4.351562 14.589844 C 4.351562 14.636719 4.3125 14.6875 4.253906 14.6875 L 3.308594 14.6875 C 3.191406 14.6875 3.09375 14.785156 3.09375 14.90625 L 3.09375 15.597656 C 3.09375 15.714844 3.191406 15.8125 3.308594 15.8125 L 6.472656 15.8125 C 6.589844 15.8125 6.691406 15.714844 6.691406 15.597656 L 6.691406 14.90625 C 6.691406 14.785156 6.589844 14.6875 6.472656 14.6875 Z M 6.472656 14.6875 "/>
		<path style=" stroke:none;fill-rule:nonzero;fill:rgb(16.078431%,16.078431%,48.627451%);fill-opacity:1;" d="M 4.125 12.253906 C 4.242188 12.253906 4.34375 12.15625 4.34375 12.035156 L 4.34375 10.523438 C 4.34375 10.40625 4.242188 10.304688 4.125 10.304688 L 3.191406 10.304688 C 3.074219 10.304688 2.976562 10.40625 2.976562 10.523438 L 2.976562 12.035156 C 2.976562 12.15625 3.074219 12.253906 3.191406 12.253906 Z M 4.125 12.253906 "/>
		<path style=" stroke:none;fill-rule:nonzero;fill:rgb(16.078431%,16.078431%,48.627451%);fill-opacity:1;" d="M 5.480469 8.929688 L 4.546875 8.929688 C 4.429688 8.929688 4.332031 9.03125 4.332031 9.148438 L 4.332031 10.089844 C 4.332031 10.207031 4.429688 10.304688 4.546875 10.304688 L 5.480469 10.304688 C 5.597656 10.304688 5.699219 10.207031 5.699219 10.089844 L 5.699219 9.148438 C 5.699219 9.03125 5.597656 8.929688 5.480469 8.929688 Z M 5.480469 8.929688 "/>
		<path style=" stroke:none;fill-rule:nonzero;fill:rgb(16.078431%,16.078431%,48.627451%);fill-opacity:1;" d="M 9.421875 0.167969 L 8.613281 0.167969 C 8.496094 0.167969 8.398438 0.265625 8.398438 0.386719 L 8.398438 1.277344 C 8.398438 1.394531 8.496094 1.492188 8.613281 1.492188 L 9.421875 1.492188 C 9.539062 1.492188 9.636719 1.394531 9.636719 1.277344 L 9.636719 0.394531 C 9.636719 0.265625 9.539062 0.167969 9.421875 0.167969 Z M 9.421875 0.167969 "/>
		<path style=" stroke:none;fill-rule:nonzero;fill:rgb(16.078431%,16.078431%,48.627451%);fill-opacity:1;" d="M 10.980469 6.84375 C 10.855469 6.84375 10.757812 6.941406 10.757812 7.070312 L 10.757812 8.625 C 10.757812 8.753906 10.855469 8.851562 10.980469 8.851562 L 12.523438 8.851562 C 12.652344 8.851562 12.75 8.753906 12.75 8.625 L 12.75 7.070312 C 12.75 6.941406 12.652344 6.84375 12.523438 6.84375 Z M 10.980469 6.84375 "/>
		<path style=" stroke:none;fill-rule:nonzero;fill:rgb(16.078431%,16.078431%,48.627451%);fill-opacity:1;" d="M 15.570312 13.441406 L 14.882812 13.441406 C 14.765625 13.441406 14.664062 13.539062 14.664062 13.660156 L 14.664062 14.617188 C 14.664062 14.667969 14.625 14.714844 14.566406 14.714844 L 13.546875 14.714844 C 13.429688 14.714844 13.328125 14.816406 13.328125 14.933594 L 13.328125 15.605469 C 13.328125 15.726562 13.429688 15.824219 13.546875 15.824219 L 15.570312 15.824219 C 15.6875 15.824219 15.785156 15.726562 15.785156 15.605469 L 15.785156 13.660156 C 15.796875 13.539062 15.699219 13.441406 15.570312 13.441406 Z M 15.570312 13.441406 "/>
	</g>
</svg>
